<svg data-name="Layer 1" id="Layer_1" viewBox="0 0 280 47" xmlns="http://www.w3.org/2000/svg"><path fill="#005eb8" class="cls-1" d="M43.46,28.63V6.59h5.68v21.71c0,4.77,2.62,7.39,6.92,7.39s6.92-2.62,6.92-7.39V6.59h5.72v22.04c0,8.16-5.53,12.5-12.64,12.5s-12.59-4.34-12.59-12.5ZM113.31,40.41V6.59h5.73v28.39h15.5v5.44h-21.23ZM141.21,40.43V6.6h5.82v33.83h-5.82ZM170.23,11.98v28.43h-5.73V11.98h-10.97v-5.39h27.72v5.39h-11.02ZM187.75,40.41V6.59h20.9v5.34h-15.17v8.97h13.74v5.2h-13.74v8.97h15.17v5.34h-20.9ZM234.23,16.13c-.33-2.1-2.1-5.2-6.63-5.2-3.43,0-5.82,2.29-5.82,4.87,0,2.15,1.34,3.77,3.96,4.34l4.87,1c5.96,1.19,9.16,4.96,9.16,9.73,0,5.25-4.25,10.26-11.98,10.26-8.59,0-12.55-5.53-13.07-10.4l5.34-1.53c.33,3.53,2.86,6.77,7.73,6.77,4.06,0,6.15-2.05,6.15-4.68,0-2.19-1.62-3.96-4.53-4.58l-4.77-1c-5.15-1.05-8.59-4.44-8.59-9.49,0-5.68,5.2-10.35,11.5-10.35,7.97,0,11.07,4.87,11.83,8.64l-5.15,1.62ZM17.62,41.11C7.9,41.11,0,33.21,0,23.49S7.9,5.87,17.62,5.87s17.62,7.9,17.62,17.62c0,4.74-1.86,9.18-5.24,12.53l5.04,5.04s-17.42.05-17.42.05ZM17.62,11.36c-6.69,0-12.13,5.44-12.13,12.13s5.44,12.13,12.13,12.13,12.13-5.44,12.13-12.13-5.44-12.13-12.13-12.13ZM261.38,11.98v28.43h-5.73V11.98h-10.97v-5.39h27.72v5.39h-11.02ZM74.37,40.38l12.7-33.78,6.39.08,12.53,33.7h-6.18l-2.84-8.24-13.42-.08-3.07,8.41-6.11-.08ZM85.2,27.08h10l-5-14.19-5,14.19ZM277.31,11.96c-1.49,0-2.69-1.21-2.69-2.69s1.21-2.69,2.69-2.69,2.69,1.21,2.69,2.69-1.21,2.69-2.69,2.69ZM277.31,7.11c-1.19,0-2.16.97-2.16,2.16s.97,2.16,2.16,2.16,2.16-.97,2.16-2.16-.97-2.16-2.16-2.16ZM277.12,9.66h-.24v1.15h-.69v-3.1h1.23c.61,0,1,.42,1,.97,0,.42-.23.74-.61.87l.63,1.25h-.76l-.55-1.15ZM277.28,9.07c.28,0,.44-.16.44-.38,0-.23-.15-.38-.44-.38h-.41v.75h.41Z"></path> </svg>